<?xml version="1.0" encoding="UTF-8"?>
<svg id="Calque_2" data-name="Calque 2" xmlns="http://www.w3.org/2000/svg" fill="#2243C8" viewBox="0 0 706.7 756.86">
  <defs>
    <style>
      .cls-1 {
        fill: none;
        isolation: isolate;
      }
    </style>
  </defs>
  <g id="Calque_1-2" data-name="Calque 1">
    <g>
      <g>
        <path d="m441.26,741.98c.75,4.18,2.17,11.88,8.2,11.88,6.61,0,8.95-6.19,8.95-11.12,0-8.87-4.93-10.87-11.71-16.9-4.52-3.93-6.77-8.7-6.77-13.97,0-6.19,2.17-16.56,12.55-16.56,1.34,0,6.77.33,7.03,2.17l.84,9.28c0,.59-.42,1-1,1s-.92-.42-1-.75c-.42-3.35-1.42-8.87-6.69-8.87-6.52,0-8.36,6.27-8.36,10.79,0,7.78,5.02,11.29,11.12,15.98,5.52,4.43,8.2,8.2,8.2,14.64s-3.01,17.23-13.63,17.23c-1.67,0-8.87-.84-8.87-3.35l-1-11.21c-.08-.59.33-1.09,1.09-1.09.67,0,1,.42,1.09.84Z"/>
        <path d="m481.83,751.01c-1.67,2.43-4.77,5.77-8.11,5.77-4.85,0-5.69-5.19-5.69-7.95v-26.6c0-.5-.25-.84-.75-.84h-1.67c-.92,0-1.42-.5-1.42-1.17,0-.5.25-.84.75-1.09,3.93-1.34,4.93-5.19,5.27-8.61,0-.5.5-.92,1.09-.92s1.17.42,1.17,1v7.78c0,.42.25.84.84.84h6.69c.84,0,1.26.5,1.26,1.09,0,.67-.5,1.09-1.26,1.09h-6.69c-.58,0-.84.33-.84.84v22.67c0,1.59-.17,7.44,2.93,7.44,1.34,0,3.35-1.09,4.6-2.26.42-.33,1-.5,1.51-.25.42.25.67.84.33,1.17Z"/>
        <path d="m514.45,751.93c-1.34,2.01-4.18,4.85-6.69,4.85-2.09,0-3.01-3.35-3.35-5.69,0-.42-.67-.59-1-.17-2.26,2.59-5.52,5.85-9.2,5.85-6.52,0-6.52-8.11-6.52-12.88v-15.81c0-3.18-.17-5.44-2.76-5.69-.59-.08-1-.42-1.09-.84-.25-.5-.08-.92.25-1.34,1.34-1.34,4.18-2.93,6.19-3.18.25-.08.75-.08,1,.08.67.17,1,.75,1,1.51-.08,2.17-.17,4.93-.25,7.11v13.22c0,3.85-.67,13.13,4.93,13.13,2.34,0,5.35-2.84,6.77-4.52.33-.5.59-1,.59-1.51v-17.98c0-3.18-.17-5.44-2.76-5.69-.59-.08-1-.42-1.17-.84-.17-.5,0-.92.33-1.34,1.25-1.34,4.18-2.93,6.19-3.18.25-.08.67-.08,1,.08.67.17,1,.75.92,1.51,0,2.17-.17,4.93-.17,7.11v20.66c0,2.76.42,5.19,1.59,5.44.84.25,1.51-.08,2.43-.92.42-.42,1.09-.5,1.59-.08.33.25.42.75.17,1.09Z"/>
        <path d="m547.57,751.93c-1.34,2.01-4.27,4.85-6.78,4.85-2.01,0-2.84-2.59-3.26-4.6-.08-.42-.59-.59-1-.17-1.84,2.34-4.68,4.77-7.95,4.77-9.03,0-11.38-13.63-11.38-18.57,0-6.69,3.51-21.16,14.47-21.16,1.76,0,3.43.59,4.77,1.42.42.25.92.08.92-.42v-14.47c0-2.51.33-5.35-3.6-5.69-.59-.08-1-.5-1.17-.92-.17-.42,0-.92.33-1.25,1.59-1.59,4.68-3.43,7.03-3.85.33-.08.67,0,.92.08.67.25,1.17.75,1.09,1.34-.17,2.59-.25,4.85-.25,7.86v46.09c0,2.76.42,4.35,1.59,4.6.84.25,1.76-.17,2.59-.92.33-.42,1-.5,1.51-.08.33.25.42.75.17,1.09Zm-10.2-5.77v-18.82c0-3.01-1.42-7.61-6.36-7.61-7.69,0-9.12,9.87-9.12,16.39,0,4.77,1.59,15.47,9.03,15.47,3.01,0,6.44-2.93,6.44-5.44Z"/>
        <path d="m562.79,754.02c0,.84-.75,1.42-1.67,1.42-1.42-.08-3.01-.08-4.43-.08s-3.01,0-4.43.08c-.92,0-1.76-.59-1.76-1.42,0-.59.42-1.17,1.17-1.34,2.84-.42,2.76-2.76,2.76-5.19v-19.49c0-3.09-.17-5.35-2.68-5.69-.59-.08-1-.42-1.17-.84-.17-.42-.08-.92.33-1.25,1.25-1.42,4.18-3.01,6.19-3.26.17-.08.67,0,1,.08.67.25.92.75.92,1.51-.08,2.68-.25,4.68-.25,7.36v21.58c0,2.51,0,4.77,2.76,5.19.84.17,1.26.67,1.26,1.34Zm-7.36-49.35c-2.17,0-3.93-1.76-3.93-3.93s1.76-3.85,3.93-3.85,3.85,1.76,3.85,3.85-1.76,3.93-3.85,3.93Z"/>
        <path d="m579.52,756.86c-11.12,0-14.13-13.21-14.13-19.74,0-6.11,3.01-20.07,13.38-20.07,11.29,0,14.13,13.13,14.13,19.74,0,6.02-3.26,20.07-13.38,20.07Zm-1.51-37.3c-7.36.25-7.78,12.71-7.53,16.98.25,4.27,2.34,17.9,9.79,17.65,7.28-.17,7.78-12.55,7.61-16.81-.25-4.35-2.17-17.98-9.87-17.82Z"/>
        <path d="m613.15,745.32c0,4.68-2.34,11.46-9.79,11.46-2.34,0-4.6-.92-6.36-2.09-.5-.42-.84-1-.92-1.59l-.67-8.45c0-.42.33-.92,1-.92.59,0,.92.33,1,.75.42,3.26,1.67,9.45,6.36,9.45,4.1,0,5.27-3.01,5.27-5.6,0-4.27-2.17-6.36-6.11-9.37-4.43-3.35-7.03-6.36-7.03-11.21,0-4.1,2.43-10.79,8.95-10.79,1.51,0,6.61,1.09,6.61,3.26l.33,7.28c.08.42-.33.84-.92.84s-.92-.33-1-.75c-.33-2.76-1.26-7.69-5.6-7.69-3.6,0-4.93,3.01-4.93,5.19,0,4.35,3.26,7.11,7.03,9.79,4.77,3.43,6.77,5.44,6.77,10.46Z"/>
      </g>
      <g>
        <path d="m559.46,419.88l147.25-42.98-126.42,129.07,33.6,138.65-130.8-46.84-190.68,158.07,91.33-199.04-119.8-55.38,165.34-44.2,91.26-199.25,38.92,161.9Zm-13.15,79.79l68.02-67.62-78.73,22.82-22.62-106.82-63.56,132.56-96.08,27.94,69.49,34.87-49.96,110.85,106.39-89.57,90.59,29.92"/>
        <path d="m457.47.69l-174.73.15L0,501.98h123.39l87.36-156.71,190.25-.12,15.83,63.7,90.86-199.69L457.47.69Zm-193.12,248.66l80.44-142.91,33.69,142.91h-114.14Z"/>
        <g class="cls-1">
          <g class="cls-1">
            <path d="m506.15,28.87c0-16.58,12.76-28.87,28.39-28.87s28.39,12.29,28.39,28.87-12.76,28.87-28.39,28.87-28.39-12.17-28.39-28.87Zm51.89,0c0-14.2-9.9-24.69-23.5-24.69s-23.5,10.5-23.5,24.69,9.9,24.69,23.5,24.69,23.5-10.38,23.5-24.69Zm-34.59-15.63h14.08c5.61,0,9.66,3.58,9.66,8.59,0,3.46-1.79,6.32-5.73,7.28v.12c2.98.83,4.41,2.51,4.77,6.2.48,4.29.24,7.52,1.31,7.99v.36h-5.85c-.83-.36-1.19-3.82-1.31-7.04-.12-3.22-2.03-5.25-5.84-5.25h-5.01v12.29h-6.08V13.24Zm6.08,13.6h6.68c3.34,0,5.01-1.79,5.01-4.29s-1.67-4.29-5.01-4.29h-6.68v8.59Z"/>
          </g>
        </g>
      </g>
    </g>
  </g>
</svg>